<svg preserveAspectRatio="none" width="100%" height="100%" overflow="visible" style="display: block;" viewBox="0 0 755.341 215.943" fill="none" xmlns="http://www.w3.org/2000/svg">
<g id="Group 2">
<path id="Vector" d="M26.1703 154.931C28.6449 177.492 50.0911 192.408 79.9358 192.408C108.206 192.408 128.752 177.492 128.752 156.954C128.752 139.265 116.454 128.397 88.3342 121.201L61.564 114.23C23.0209 104.411 5.92395 87.4717 5.92395 59.064C5.92395 24.2852 36.3685 0 79.7858 0C123.203 0 151.473 24.585 152.673 59.6636H126.577C124.253 37.2523 106.181 23.4607 78.886 23.4607C51.5908 23.4607 32.9941 37.4772 32.9941 57.9397C32.9941 73.755 44.5421 83.1243 72.962 90.5448L94.8581 96.3163C138.2 107.185 155.672 123.825 155.672 153.806C155.672 192.033 125.528 215.943 77.4612 215.943C33.1441 215.943 2.39957 191.883 0 155.006H26.2453L26.1703 154.931Z" fill="var(--fill-0, #FFFDF1)"/>
<path id="Vector_2" d="M213.412 25.4874V61.8402H242.657V82.5276H213.412V172.023C213.412 185.74 219.186 192.036 232.084 192.036C235.008 192.036 240.782 191.586 242.507 191.286V212.423C239.432 213.173 232.534 213.548 226.61 213.548C198.94 213.548 188.217 202.23 188.217 173.297V82.5276H165.796V61.8402H188.217V25.4874H213.412Z" fill="var(--fill-0, #FFFDF1)"/>
<path id="Vector_3" d="M383.782 212.421H359.861V187.986H359.261C350.263 205.375 334.666 215.044 311.495 215.044C278.576 215.044 259.304 193.757 259.304 159.578V61.8375H284.499V155.081C284.499 179.516 295.972 192.708 319.293 192.708C343.739 192.708 358.586 175.918 358.586 150.284V61.8375H383.782V212.421Z" fill="var(--fill-0, #FFFDF1)"/>
<path id="Vector_4" d="M404.028 137.091C404.028 89.8702 429.973 59.2139 467.916 59.2139C489.513 59.2139 506.91 69.7824 515.833 86.2724H516.433V3.44788H541.628V212.421H517.558V186.936H517.108C507.434 204.325 490.188 215.044 468.441 215.044C430.048 215.044 403.953 184.313 403.953 137.166L404.028 137.091ZM429.823 137.091C429.823 171.271 446.62 192.857 473.316 192.857C500.011 192.857 516.658 170.821 516.658 137.091C516.658 103.362 499.261 81.3254 473.316 81.3254C447.37 81.3254 429.823 103.062 429.823 137.091Z" fill="var(--fill-0, #FFFDF1)"/>
<path id="Vector_5" d="M567.199 20.8409C567.199 12.1462 574.323 5.17548 582.871 5.17548C591.42 5.17548 598.693 12.1462 598.693 20.8409C598.693 29.5356 591.57 36.5064 582.871 36.5064C574.173 36.5064 567.199 29.3857 567.199 20.8409ZM570.198 61.8409H595.394V212.424H570.198V61.8409Z" fill="var(--fill-0, #FFFDF1)"/>
<path id="Vector_6" d="M615.865 137.096C615.865 89.05 643.985 59.2181 685.678 59.2181C727.37 59.2181 755.341 89.05 755.341 137.096C755.341 185.141 727.22 214.973 685.678 214.973C644.135 214.973 615.865 184.991 615.865 137.096ZM729.77 137.096C729.77 101.642 712.373 81.3297 685.753 81.3297C659.133 81.3297 641.586 101.567 641.586 137.096C641.586 172.624 659.133 192.862 685.753 192.862C712.373 192.862 729.77 172.549 729.77 137.096Z" fill="var(--fill-0, #FFFDF1)"/>
</g>
</svg>
