<svg preserveAspectRatio="none" width="100%" height="100%" overflow="visible" style="display: block;" viewBox="0 0 741.993 211.525" fill="none" xmlns="http://www.w3.org/2000/svg">
<g id="Group 3">
<path id="Vector" d="M129.502 208.973H0V0H129.502V23.4607H26.0953V90.4699H124.178V113.631H26.0953V185.437H129.502V208.898V208.973Z" fill="var(--fill-0, #FFFDF1)"/>
<path id="Vector_2" d="M183.567 22.0395V58.3923H212.812V79.0797H183.567V168.575C183.567 182.292 189.341 188.588 202.239 188.588C205.163 188.588 210.937 188.138 212.662 187.838V208.976C209.588 209.725 202.689 210.1 196.765 210.1C169.095 210.1 158.372 198.782 158.372 169.849V79.0797H135.951V58.3923H158.372V22.0395H183.567Z" fill="var(--fill-0, #FFFDF1)"/>
<path id="Vector_3" d="M351.837 165.798C347.488 192.182 321.992 211.52 289.148 211.52C245.956 211.52 219.786 181.538 219.786 134.167C219.786 86.7957 246.406 55.6897 288.023 55.6897C329.641 55.6897 353.787 85.2217 353.787 130.869V140.388H245.731V141.812C245.731 170.595 262.678 189.633 289.748 189.633C308.87 189.633 322.892 179.964 327.092 165.723H351.837V165.798ZM245.806 120.75H327.616C327.017 95.5654 311.269 77.5764 287.499 77.5764C263.728 77.5764 247.381 95.7153 245.806 120.75Z" fill="var(--fill-0, #FFFDF1)"/>
<path id="Vector_4" d="M373.883 58.3937H397.654V82.9787H398.254C403.203 66.3388 417.075 55.7703 434.772 55.7703C439.121 55.7703 442.871 56.5198 444.895 56.8196V81.2547C442.871 80.5052 437.472 79.8306 431.398 79.8306C411.826 79.8306 399.079 93.8471 399.079 115.134V208.977H373.883V58.3937Z" fill="var(--fill-0, #FFFDF1)"/>
<path id="Vector_5" d="M458.768 58.391H482.539V82.4514H483.139C491.537 66.2612 507.584 55.8426 530.905 55.8426C563.899 55.8426 583.096 77.1296 583.096 111.309V209.049H557.9V115.806C557.9 91.4459 546.427 78.179 523.257 78.179C500.086 78.179 483.964 94.9687 483.964 120.453V209.049H458.768V58.391Z" fill="var(--fill-0, #FFFDF1)"/>
<path id="Vector_6" d="M602.518 133.648C602.518 85.6021 630.638 55.7703 672.33 55.7703C714.023 55.7703 741.993 85.6021 741.993 133.648C741.993 181.694 713.873 211.525 672.33 211.525C630.788 211.525 602.518 181.544 602.518 133.648ZM716.348 133.648C716.348 98.1944 698.951 77.8818 672.33 77.8818C645.71 77.8818 628.163 98.1195 628.163 133.648C628.163 169.176 645.71 189.414 672.33 189.414C698.951 189.414 716.348 169.101 716.348 133.648Z" fill="var(--fill-0, #FFFDF1)"/>
</g>
</svg>
